<?xml version="1.0" standalone="no"?>
<!DOCTYPE svg PUBLIC "-//W3C//DTD SVG 20010904//EN"
 "http://www.w3.org/TR/2001/REC-SVG-20010904/DTD/svg10.dtd">
<svg version="1.0" xmlns="http://www.w3.org/2000/svg"
 width="318.000000pt" height="326.000000pt" viewBox="0 0 318.000000 326.000000"
 preserveAspectRatio="xMidYMid meet">

<g transform="translate(0.000000,326.000000) scale(0.100000,-0.100000)"
fill="#000000" stroke="none">
<path d="M1068 3020 c-46 -14 -85 -48 -107 -93 -21 -43 -21 -49 -21 -1127 l0
-1083 24 -41 c33 -56 91 -87 160 -87 30 0 68 7 85 16 17 8 95 81 173 160 77
80 146 145 152 145 6 0 65 -127 131 -283 153 -359 178 -391 315 -391 58 0 82
8 225 69 124 54 169 79 201 110 47 48 70 113 61 180 -4 24 -61 171 -127 326
-66 155 -120 285 -120 290 0 5 99 9 220 9 202 0 224 2 260 20 85 44 124 163
81 247 -13 27 -214 228 -593 594 -315 305 -656 634 -757 733 -219 212 -262
237 -363 206z m166 -414 c69 -29 66 -4 66 -578 l0 -518 -29 -32 c-27 -30 -35
-33 -85 -33 -47 0 -60 4 -83 28 l-28 27 -3 515 c-3 571 -4 562 61 590 41 18
60 18 101 1z m-14 -1311 c47 -24 60 -52 60 -126 0 -58 -4 -72 -26 -98 -33 -39
-83 -50 -131 -27 -45 21 -67 72 -61 143 6 74 45 114 116 122 7 0 26 -6 42 -14z"/>
</g>
</svg>
